<?xml version="1.0" encoding="iso-8859-1"?>
<!-- Generator: Adobe Illustrator 19.0.0, SVG Export Plug-In . SVG Version: 6.00 Build 0)  -->
<svg version="1.1" id="Capa_1" xmlns="http://www.w3.org/2000/svg" xmlns:xlink="http://www.w3.org/1999/xlink" x="0px" y="0px"
	 viewBox="0 0 372.064 372.064" style="enable-background:new 0 0 372.064 372.064;" xml:space="preserve">
<g>
	<g>
		<path d="M365.437,35.312c-4.096-2.56-8.704-3.584-14.336-3.072c-9.728,1.536-17.92,5.12-25.6,10.752
			c-6.656,5.12-14.336,11.264-23.04,18.432c-4.096,3.584-8.192,7.168-12.288,10.752c-2.56,2.56-5.12,4.608-7.68,7.168
			c-2.56,2.048-4.608,3.072-7.68,2.56c-1.536-0.512-3.584-1.024-5.632-1.536l-95.744-35.84c-3.072-1.024-6.144-2.048-9.728-3.072
			c-7.168-2.048-12.288,0-15.36,2.56c-5.632,4.096-10.24,9.216-13.312,14.848c-3.584,5.632-2.56,11.776,2.56,16.384
			c2.048,2.048,4.096,3.584,5.632,4.608c17.408,12.288,35.328,24.064,52.736,36.352c6.656,4.608,12.8,8.704,17.408,14.336
			c1.024,1.536,2.048,2.56,3.072,4.096l-33.28,31.744c-3.584,3.584-7.168,6.656-10.752,10.24c-0.512,0-1.024-0.512-1.536-0.512
			l-5.632-2.56c-4.608-2.048-8.704-4.608-13.312-6.656c-5.632-2.56-11.776-2.048-16.384,2.048c-2.56,2.048-5.12,4.608-7.68,7.168
			c-4.608,4.608-5.12,10.24-1.024,15.36c1.024,1.536,2.048,2.56,3.072,3.584l9.728,12.288c11.264,14.848,23.04,29.696,34.816,44.032
			c1.536,2.048,3.072,3.584,5.12,4.608c2.048,1.024,6.144,3.584,11.264,2.048c6.144-2.048,10.752-6.144,12.8-12.288
			c2.048-5.12,2.56-10.752,0.512-16.896l-1.024-4.608c-1.024-4.096-2.048-8.192-3.072-12.288
			c13.824-10.752,27.648-20.992,40.96-31.744l6.656-5.12l1.536,2.56c3.584,5.632,6.656,11.264,8.704,17.408l23.552,60.416
			c1.536,3.584,2.56,7.168,4.096,10.24c2.56,5.632,6.656,8.704,11.776,8.704c2.048,0,4.096-0.512,6.144-1.536
			c1.536-0.512,3.072-1.024,4.096-2.048c8.192-4.096,13.312-9.728,15.36-17.408c1.536-6.144,1.024-11.776,0.512-15.872l-12.288-89.6
			c-1.024-7.168-2.048-14.848-3.072-22.016c-0.512-3.584,0.512-5.632,3.072-7.68l10.752-9.216
			c8.704-7.168,16.896-14.336,25.6-21.504c7.168-6.144,11.776-11.776,15.872-17.92c3.072-4.608,6.144-10.24,7.68-16.384
			C373.629,46.576,371.069,39.408,365.437,35.312z M361.341,51.184c-1.536,5.12-4.096,9.728-6.656,13.824
			c-3.072,5.12-7.68,10.24-13.824,15.36c-8.192,7.168-16.896,14.336-25.6,21.504l-10.24,8.704
			c-5.632,4.096-8.192,10.24-7.168,17.408c1.024,7.168,2.048,14.336,3.072,22.016l12.288,89.6c0.512,5.12,0.512,8.704-0.512,11.776
			c-1.536,4.608-4.608,8.192-9.728,10.752c-1.024,0.512-2.048,1.024-3.584,1.536c-3.072,1.024-4.096,0.512-5.12-2.048
			c-1.536-3.072-2.56-6.656-4.096-10.24l-22.528-60.416c-2.56-6.656-6.144-12.8-9.728-18.944l-3.072-5.12l-4.608-6.656
			l-15.872,11.776c-14.336,10.752-28.672,22.016-42.496,32.768c-3.584,2.56-3.072,5.632-2.56,7.68
			c1.024,4.608,2.56,9.216,3.584,13.824l1.024,4.608c1.024,4.096,1.024,7.68-0.512,10.752c-1.536,3.072-3.584,5.12-7.168,6.144
			c0,0-1.024,0-2.56-1.024c-1.024-0.512-2.048-1.536-2.56-2.56c-11.776-14.848-23.04-29.184-34.304-44.032l-9.728-12.288
			c-1.024-1.024-1.536-2.048-2.56-3.584c-0.512-0.512-0.512-1.024-0.512-1.024s0.512-0.512,1.024-1.024
			c2.048-2.048,4.608-4.608,6.656-6.144c1.536-1.536,3.584-1.536,5.632-0.512c4.608,2.048,8.704,4.096,13.312,6.656l5.632,2.56
			c1.024,0.512,2.048,1.024,3.072,1.536c2.56,1.536,5.632,1.024,8.192-1.024c4.096-4.096,8.192-7.68,12.288-11.776l35.328-33.28
			l4.096-4.096l-2.56-3.584c-0.512-1.024-1.024-1.536-1.536-2.56c-1.536-2.048-2.56-4.096-4.096-5.632
			c-5.632-6.656-12.288-11.776-19.456-16.384c-17.408-11.776-35.328-24.064-52.736-36.352c-1.536-1.024-3.072-2.048-4.608-3.584
			c-1.536-1.536-1.536-2.048-0.512-3.072c2.56-4.608,6.656-8.704,11.264-12.288c1.024-1.024,2.56-1.536,6.144-0.512
			c3.584,1.024,6.656,2.048,9.216,3.072l95.744,35.84c2.56,1.024,5.12,1.536,7.168,2.048c5.632,1.024,11.264-0.512,15.872-4.608
			c2.56-2.56,5.12-4.608,7.68-7.168c4.096-3.584,8.192-7.168,12.288-10.752c8.704-7.168,15.872-13.312,22.528-18.432
			c6.144-4.608,13.312-7.68,20.992-8.704c2.56-0.512,4.608,0,6.656,1.024C361.341,45.04,362.365,48.112,361.341,51.184z"/>
	</g>
</g>
<g>
	<g>
		<path d="M136.061,228.848c-1.536-2.048-5.12-2.56-7.168-1.024L1.917,324.592c-2.048,1.536-2.56,5.12-1.024,7.168
			c1.024,1.536,2.56,2.048,4.096,2.048c1.024,0,2.048-0.512,3.072-1.024l126.976-96.768
			C137.597,234.48,137.597,231.408,136.061,228.848z"/>
	</g>
</g>
<g>
	<g>
		<path d="M152.957,252.912c-2.048-2.048-5.12-2.56-7.68-1.024L67.965,311.28c-2.048,1.536-2.56,5.12-1.024,7.168
			c1.024,1.536,2.56,2.048,4.096,2.048c1.024,0,2.048-0.512,3.072-1.024l77.824-59.392
			C153.981,258.544,154.493,254.96,152.957,252.912z"/>
	</g>
</g>
<g>
	<g>
		<path d="M61.821,322.032c-1.536-2.048-5.12-2.56-7.168-1.024l-12.8,9.728c-2.048,1.536-2.56,5.12-1.024,7.168
			c1.024,1.536,2.56,2.048,4.096,2.048c1.024,0,2.048-0.512,3.072-1.024l12.8-9.728C62.845,327.664,63.357,324.08,61.821,322.032z"
			/>
	</g>
</g>
<g>
	<g>
		<path d="M44.925,264.688c-1.536-2.048-5.12-2.56-7.168-1.024l-12.8,9.728c-2.048,1.536-2.56,5.12-1.024,7.168
			c1.024,1.536,2.56,2.048,4.096,2.048c1.024,0,2.048-0.512,3.072-1.024l12.8-9.728C45.949,270.32,46.461,266.736,44.925,264.688z"
			/>
	</g>
</g>
<g>
	<g>
		<path d="M119.165,208.88c-1.536-2.048-5.12-2.56-7.168-1.024l-60.928,46.08c-2.048,1.536-2.56,5.12-1.024,7.168
			c1.024,1.024,2.56,2.048,4.096,2.048c1.024,0,2.048-0.512,3.072-1.024l60.928-46.08
			C120.189,214.512,120.701,210.928,119.165,208.88z"/>
	</g>
</g>
<g>
</g>
<g>
</g>
<g>
</g>
<g>
</g>
<g>
</g>
<g>
</g>
<g>
</g>
<g>
</g>
<g>
</g>
<g>
</g>
<g>
</g>
<g>
</g>
<g>
</g>
<g>
</g>
<g>
</g>
</svg>
